<svg width="99" height="129" fill="none" xmlns="http://www.w3.org/2000/svg"><path d="M95.259 58.58l-8.232-6.555c.412-1.253.768-3.244.768-6.383 0-4.743-.966-8.778-1.812-11.403a2.868 2.868 0 00.847-2.037V21.123a2.88 2.88 0 00-2.876-2.876H71.292a2.88 2.88 0 00-2.876 2.876v11.08c0 .794.325 1.515.848 2.036-.847 2.625-1.813 6.66-1.813 11.403 0 3.14.357 5.13.769 6.383l-1.54 1.225.152-8.713a5.855 5.855 0 00-1.645-4.278l-7.198-7.41a3.994 3.994 0 01-1.135-2.797v-3.1a2.879 2.879 0 00.668-1.847V2.893A2.896 2.896 0 0054.63 0H42.883a2.896 2.896 0 00-2.894 2.893v22.211c0 .702.252 1.346.67 1.848v3.1c0 1.05-.404 2.043-1.136 2.797l-7.198 7.41a5.855 5.855 0 00-1.645 4.279l.253 14.527a5.814 5.814 0 01-3.441-4.956 2.823 2.823 0 001.309-2.38v-9.457a2.828 2.828 0 00-2.825-2.825H15.727a2.828 2.828 0 00-2.825 2.825v9.458c0 .999.524 1.877 1.31 2.38a5.811 5.811 0 01-5.076 5.411h-.002a9.693 9.693 0 00-8.491 9.607v5.821a1.862 1.862 0 103.724 0v-5.82a5.964 5.964 0 015.206-5.909c.182-.014.649-.027 1.328-.038h.006l.534-.007.197-.002.107-.002.161-.001.16-.002c4.373-.045 13.193-.045 17.567 0l.215.002c.035 0 .072 0 .107.002.055 0 .107 0 .16.002l.143.001.746.011.1 5.785H10.19a4.329 4.329 0 00-4.324 4.324v38.411a3.636 3.636 0 003.632 3.632h22.378a.406.406 0 01-.133.213 3.501 3.501 0 00-1.444 2.931l.165 6.082c.006.244.037.48.08.712H5.95a1.583 1.583 0 01-1.582-1.581V83.622a1.862 1.862 0 00-3.724 0v40.072A5.312 5.312 0 005.95 129h86.783a5.63 5.63 0 005.624-5.624v-58.37a8.177 8.177 0 00-3.098-6.427zM16.627 43.171h8.45v7.657h-8.45v-7.657zm1.803 16.24h-.014c-.792.001-1.568.004-2.315.007h-.016a9.5 9.5 0 001.835-4.865h5.864a9.5 9.5 0 001.835 4.865c-2.256-.01-4.792-.012-7.19-.007zM9.59 73.294a.6.6 0 01.598-.6H31.17l.336 19.352H9.59V73.294zm0 22.476h21.98l.052 2.953H9.589V95.77zm0 15.842v-9.165h22.097l.16 9.165H9.588zM43.713 3.725h10.084V6.6H43.714V3.725zm0 6.601h10.084v13.947H43.714V10.326zm19.612 114.136a.831.831 0 01-.835.813H35.02a.831.831 0 01-.835-.813l-.161-5.968c1.032-.797 1.63-2.074 1.607-3.441l-1.227-70.6-.002-.045a2.114 2.114 0 01.594-1.553l7.199-7.411a7.7 7.7 0 002.187-5.392v-2.055h8.747v2.055c0 2.025.777 3.94 2.188 5.392l7.198 7.41c.401.413.617.98.594 1.554l-.001.044-1.227 70.601c-.024 1.367.574 2.644 1.606 3.441l-.162 5.968zm8.815-102.49h10.965v2.865H72.14V21.97zm0 6.317h10.965v3.065H72.14v-3.065zm.766 6.79h9.432a34.108 34.108 0 011.639 8.128H71.269a34.095 34.095 0 011.638-8.129zm19.826 90.197H66.97c.043-.233.073-.469.08-.713l.093-3.46h27.49v2.273c0 1.047-.853 1.9-1.9 1.9zm1.9-58.353H78.307a1.862 1.862 0 000 3.724h16.324v46.731h-27.57a3.495 3.495 0 00-1.292-1.828c-.102-.074-.168-.248-.165-.432l.543-31.205c.628.618 1.473.96 2.34.96.454 0 .914-.093 1.352-.289 5.31-2.369 10.257-2.368 15.567 0a3.336 3.336 0 004.226-1.351l1.434-2.42a3.347 3.347 0 00-1.476-4.742c-7.73-3.578-15.566-3.671-23.302-.284l.09-5.14h3.19a1.862 1.862 0 000-3.724h-3.126l.154-8.845 5.096-4.057a1.863 1.863 0 00.28-2.637c-.085-.151-.649-1.26-.772-4.452h12.846c-.124 3.192-.687 4.3-.773 4.452a1.862 1.862 0 00.28 2.637l9.385 7.472a4.469 4.469 0 011.694 3.514v1.916zm-8.03 14.119c-6.039-2.604-11.92-2.605-17.959 0L67.6 79.279c6.654-2.965 13.395-2.965 20.048 0l-1.045 1.763z" fill="#fff"/></svg>