<svg width="129" height="129" fill="none" xmlns="http://www.w3.org/2000/svg"><g clip-path="url(#clip0)" fill="#fff"><path d="M126.48 52.028h-20.66v-5.333a2.52 2.52 0 00-2.519-2.52H48.879a2.52 2.52 0 000 5.04h51.902V68.53c0 16.968-9.06 32.739-23.688 41.32H28.727C14.098 101.271 5.04 85.499 5.04 68.531V49.215h16.88a2.52 2.52 0 000-5.04H2.52A2.52 2.52 0 000 46.696v21.836c0 9.524 2.56 18.862 7.403 27.005a53.2 53.2 0 0012.466 14.316H2.52A2.52 2.52 0 000 112.371C0 121.54 7.46 129 16.629 129h78.61c9.169 0 16.628-7.46 16.628-16.629a2.52 2.52 0 00-2.519-2.519H85.951a53.236 53.236 0 0011.666-13.018h7.112c13.383 0 24.271-10.888 24.271-24.272V54.549a2.52 2.52 0 00-2.52-2.52zm-19.928 62.863c-1.153 5.183-5.788 9.07-11.314 9.07h-78.61c-5.525 0-10.16-3.887-11.313-9.07h101.237zm-.732-46.36v-1.386h8.063v5.418c0 5.047-4.107 9.154-9.154 9.154h-.573a53.028 53.028 0 001.664-13.186zm18.141 4.031c0 10.605-8.628 19.233-19.232 19.233h-4.289a52.507 52.507 0 002.151-5.04h2.138c7.826 0 14.193-6.366 14.193-14.192v-7.937a2.52 2.52 0 00-2.52-2.52H105.82v-5.039h18.141v15.495zM55.316 13.944l-1.31-1.646a6.567 6.567 0 01-.008-8.212A2.52 2.52 0 1050.051.953a11.584 11.584 0 00.013 14.484l1.31 1.647a8.583 8.583 0 01.01 10.731l-1.344 1.693a2.52 2.52 0 103.947 3.132l1.344-1.692a13.6 13.6 0 00-.015-17.004zm13.966 5.665l-1.311-1.646a6.568 6.568 0 01-.007-8.212 2.52 2.52 0 10-3.947-3.133 11.585 11.585 0 00.012 14.485l1.311 1.646a8.584 8.584 0 01.009 10.732l-1.343 1.692a2.52 2.52 0 103.947 3.132l1.343-1.692a13.6 13.6 0 00-.014-17.004zm-27.932 0l-1.31-1.646a6.568 6.568 0 01-.007-8.212 2.52 2.52 0 10-3.947-3.133 11.585 11.585 0 00.012 14.485l1.311 1.646a8.584 8.584 0 01.01 10.731l-1.344 1.693a2.52 2.52 0 103.946 3.133l1.344-1.693a13.6 13.6 0 00-.014-17.004z"/><path d="M37.864 44.913a2.539 2.539 0 00-1.782-.738 2.54 2.54 0 00-1.781.738 2.544 2.544 0 00-.738 1.782c0 .662.27 1.312.738 1.783a2.536 2.536 0 001.781.736c.663 0 1.313-.267 1.782-.736.47-.47.738-1.118.738-1.784a2.53 2.53 0 00-.738-1.78zm53.343 21.099a2.52 2.52 0 00-2.52 2.52c0 9.352-3.793 18.543-10.407 25.216a2.52 2.52 0 103.58 3.546c7.541-7.608 11.867-18.092 11.867-28.763a2.52 2.52 0 00-2.52-2.52zm-17.162 34.574a2.52 2.52 0 00-3.432-.957l-.058.033a2.52 2.52 0 102.476 4.389l.058-.033a2.519 2.519 0 00.956-3.432z"/></g><defs><clipPath id="clip0"><path fill="#fff" d="M0 0h129v129H0z"/></clipPath></defs></svg>