<svg width="129" height="129" fill="none" xmlns="http://www.w3.org/2000/svg"><path d="M44.163 60.396c-4.315 0-7.826 3.51-7.826 7.826 0 4.315 3.51 7.826 7.826 7.826 4.315 0 7.826-3.511 7.826-7.826 0-4.315-3.511-7.826-7.826-7.826zm0 11.865a4.044 4.044 0 01-4.04-4.04 4.044 4.044 0 014.04-4.038 4.044 4.044 0 014.04 4.039 4.044 4.044 0 01-4.04 4.04zm32.848-4.039c0 4.315 3.51 7.826 7.826 7.826 4.315 0 7.826-3.511 7.826-7.826 0-4.315-3.51-7.826-7.826-7.826-4.315 0-7.826 3.51-7.826 7.826zm7.826-4.04a4.044 4.044 0 014.04 4.04 4.044 4.044 0 01-4.04 4.04 4.044 4.044 0 01-4.04-4.04 4.044 4.044 0 014.04-4.04z" fill="#fff"/><path d="M128.784 94.853l-8.535-50.828a3.01 3.01 0 00-.019-.097c-1.201-8.428-6.873-15.323-14.398-18.417v-3.514a5.685 5.685 0 00-5.679-5.68h-7.14a5.686 5.686 0 00-5.68 5.68v3.801a23.442 23.442 0 00-6.867 4.709H48.534a23.443 23.443 0 00-6.867-4.709v-3.8a5.686 5.686 0 00-5.68-5.68h-7.14a5.686 5.686 0 00-5.68 5.68v3.514C15.643 28.605 9.972 35.498 8.77 43.925a1.785 1.785 0 00-.019.099L6.002 60.393a1.893 1.893 0 103.734.627l2.723-16.212c.017-.07.031-.14.04-.212 1.318-9.725 9.722-17.058 19.548-17.058 5.22 0 10.09 2 13.798 5.643v2.586a6.95 6.95 0 006.942 6.941h7.926a1.893 1.893 0 100-3.786h-7.926a3.159 3.159 0 01-3.155-3.155v-1.474h29.736v1.474a3.159 3.159 0 01-3.156 3.155h-7.926a1.893 1.893 0 100 3.786h7.926a6.95 6.95 0 006.942-6.941V33.18c3.708-3.642 8.578-5.643 13.798-5.643 9.826 0 18.23 7.333 19.548 17.058.009.071.023.14.04.21l8.51 50.673a11.463 11.463 0 01-6.941 12.542 11.401 11.401 0 01-9.18-.153 11.401 11.401 0 01-6.15-6.816l-1.742-5.19a1.893 1.893 0 10-3.59 1.206l1.743 5.189a15.352 15.352 0 008.172 9.058 15.323 15.323 0 006.335 1.367c1.995 0 3.992-.387 5.863-1.164a15.232 15.232 0 009.224-16.665zM26.954 24.317v-2.32c0-1.044.85-1.893 1.893-1.893h7.14c1.044 0 1.893.85 1.893 1.893v2.48a23.703 23.703 0 00-5.832-.725c-1.744 0-3.448.197-5.094.565zm64.166.16v-2.48c0-1.044.85-1.893 1.893-1.893h7.14c1.044 0 1.893.85 1.893 1.893v2.32a23.318 23.318 0 00-5.094-.565c-1.998 0-3.952.248-5.832.725z" fill="#fff"/><path d="M98.624 88.68L95.26 78.66a1.894 1.894 0 00-2.91-.927 11.868 11.868 0 01-7.036 2.29c-3.28 0-6.341-1.304-8.62-3.672a1.893 1.893 0 00-1.364-.581H53.67c-.515 0-1.007.21-1.364.58a11.861 11.861 0 01-8.62 3.673 11.87 11.87 0 01-7.035-2.29 1.894 1.894 0 00-2.91.927l-7.52 22.392a11.398 11.398 0 01-6.15 6.816 11.4 11.4 0 01-9.18.153 11.462 11.462 0 01-6.94-12.541l4.53-26.984a1.893 1.893 0 10-3.733-.628L.216 94.853a15.231 15.231 0 009.224 16.665 15.3 15.3 0 005.864 1.165 15.31 15.31 0 006.334-1.368 15.35 15.35 0 008.172-9.057l6.765-20.142a15.633 15.633 0 007.112 1.694 15.6 15.6 0 0010.76-4.254h20.107a15.6 15.6 0 0010.76 4.254c2.502 0 4.92-.58 7.112-1.694l2.61 7.77a1.892 1.892 0 103.588-1.206zM32.2 35.517a5.917 5.917 0 00-5.91 5.91v.429h-.429a5.917 5.917 0 00-5.91 5.91 5.917 5.917 0 005.91 5.91h.429v.429a5.917 5.917 0 005.91 5.91 5.917 5.917 0 005.91-5.91v-.429h.428a5.917 5.917 0 005.91-5.91 5.917 5.917 0 00-5.91-5.91h-.428v-.429a5.917 5.917 0 00-5.91-5.91zm6.338 10.126c1.171 0 2.124.952 2.124 2.123 0 1.17-.953 2.123-2.123 2.123h-2.322a1.893 1.893 0 00-1.894 1.894v2.322a2.126 2.126 0 01-2.123 2.123 2.126 2.126 0 01-2.124-2.123v-2.322a1.893 1.893 0 00-1.893-1.894h-2.322a2.126 2.126 0 01-2.123-2.123c0-1.171.952-2.123 2.123-2.123h2.322a1.893 1.893 0 001.893-1.894v-2.322c0-1.17.953-2.123 2.124-2.123 1.17 0 2.123.953 2.123 2.123v2.322c0 1.046.848 1.894 1.894 1.894h2.322zm59.559-12.711a5.535 5.535 0 00-5.529 5.529 5.535 5.535 0 005.529 5.529 5.535 5.535 0 005.529-5.53 5.535 5.535 0 00-5.529-5.528zm0 7.271c-.96 0-1.742-.782-1.742-1.742s.781-1.742 1.742-1.742c.96 0 1.742.781 1.742 1.742 0 .96-.781 1.742-1.742 1.742zm0 11.34a5.535 5.535 0 00-5.529 5.529 5.535 5.535 0 005.529 5.528 5.535 5.535 0 005.529-5.529 5.535 5.535 0 00-5.529-5.528zm0 7.27c-.96 0-1.742-.781-1.742-1.742 0-.96.781-1.742 1.742-1.742.96 0 1.742.782 1.742 1.742s-.781 1.743-1.742 1.743zm14.834-11.047a5.535 5.535 0 00-5.529-5.529 5.536 5.536 0 00-5.529 5.529 5.536 5.536 0 005.529 5.529 5.535 5.535 0 005.529-5.529zm-7.271 0c0-.96.782-1.742 1.742-1.742.961 0 1.743.782 1.743 1.742s-.782 1.742-1.743 1.742c-.96 0-1.742-.781-1.742-1.742zm-22.397 0a5.535 5.535 0 005.529 5.529 5.535 5.535 0 005.528-5.529 5.535 5.535 0 00-5.528-5.529 5.535 5.535 0 00-5.53 5.529zm7.27 0a1.743 1.743 0 01-3.484 0c0-.96.782-1.742 1.743-1.742.96 0 1.742.781 1.742 1.742zM58.91 55.097a1.893 1.893 0 100-3.786h-5.667a1.893 1.893 0 100 3.786h5.667zm16.847-3.786H70.09a1.893 1.893 0 100 3.786h5.667a1.893 1.893 0 100-3.786z" fill="#fff"/></svg>