<svg width="129" height="129" fill="none" xmlns="http://www.w3.org/2000/svg"><g clip-path="url(#clip0)" fill="#fff"><path d="M64.248 117.536a8.315 8.315 0 100-16.63 8.315 8.315 0 000 16.63zm63.399-78.518C111.086 21.25 88.661 11.464 64.499 11.464c-24.16 0-46.585 9.786-63.146 27.554a5.04 5.04 0 007.372 6.872C23.36 30.189 43.166 21.542 64.501 21.542c21.333 0 41.14 8.647 55.774 24.348a5.025 5.025 0 003.687 1.603 5.04 5.04 0 003.685-8.475z"/><path d="M109.144 59.828C96.903 47.494 81.048 40.702 64.499 40.702c-16.552 0-32.407 6.793-44.645 19.127a5.04 5.04 0 007.154 7.098C37.34 56.515 50.654 50.78 64.5 50.78c13.842 0 27.157 5.734 37.492 16.148a5.024 5.024 0 003.577 1.489 5.039 5.039 0 003.576-8.589zm-20.167 20.87c-6.556-6.495-15.953-10.53-24.525-10.53h-.37c-8.572 0-17.97 4.036-24.526 10.53a5.04 5.04 0 007.093 7.16c4.667-4.624 11.51-7.611 17.433-7.611h.37c5.923 0 12.766 2.987 17.432 7.61a5.039 5.039 0 107.093-7.159z"/></g><defs><clipPath id="clip0"><path fill="#fff" d="M0 0h129v129H0z"/></clipPath></defs></svg>